<svg width="129" height="70" viewBox="0 0 129 70" fill="none" xmlns="http://www.w3.org/2000/svg">
<path d="M68.4043 51.7349V23.2859H86.4679" stroke="white" stroke-width="11.63"/>
<path d="M94.4727 18.3146V51.8332" stroke="white" stroke-width="11.63"/>
<path d="M101.969 22.9413H115.233M128.498 22.9413H115.233M115.233 22.9413V51.7348" stroke="white" stroke-width="11.63"/>
<path d="M71.4551 38.4456H86.4179" stroke="white" stroke-width="11.63"/>
<path d="M18.6454 51.5387C14.1727 60.3905 5.54038 66.4079 0.5 69.3061C3.39822 68.235 7.77558 66.8599 11.8409 64.2027C15.1716 62.0256 17.8893 59.1623 19.5905 57.5872L40.193 57.2092C40.193 57.2092 46.8085 56.9067 51.3449 55.697C55.8812 54.4874 57.7285 52.8649 57.9604 49.2706C58.3384 43.4111 58.3384 32.0702 58.3384 32.0702H28.6631V40.7649L45.2964 41.1429C45.2964 41.647 45.7462 43.0751 45.2964 44.1672C44.7991 45.3747 43.6583 46.1833 42.8392 46.4353H24.8829C25.2609 45.2382 26.0219 42.6764 26.395 40.1979C26.7911 37.5661 26.8409 36.0539 26.773 33.3933C26.6779 29.6678 25.4499 23.9426 25.4499 23.9426C29.7972 23.8796 39.1724 23.7914 41.8942 23.9426C44.616 24.0938 45.2964 26.9038 45.2964 28.29H58.3384C58.3384 27.6599 58.9613 22.523 57.3933 19.4063C54.7525 14.1571 49.8494 12.6018 43.9733 12.6018H18.8344C18.0153 11.8457 16.2664 9.86641 14.4871 8.25442C11.9154 5.92465 10.5958 4.32788 7.49353 2.77301C5.13538 1.59107 2.51615 0.945867 1.06704 0.693848C4.72132 3.40305 10.2465 6.38288 14.4871 11.6567C17.6368 15.5739 19.2546 18.0637 20.9136 22.8085C22.6604 27.8045 23.0497 30.9417 22.8037 36.2286C22.5157 42.4175 21.4395 46.009 18.6454 51.5387Z" fill="#479F77"/>
</svg>
